<?xml version="1.0" encoding="UTF-8"?>
<svg width="203px" height="41px" viewBox="0 0 203 41" version="1.1" xmlns="http://www.w3.org/2000/svg" xmlns:xlink="http://www.w3.org/1999/xlink">
    <!-- Generator: Sketch 54.1 (76490) - https://sketchapp.com -->
    <title>Group 2</title>
    <desc>Created with Sketch.</desc>
    <defs>
        <rect id="path-1" x="0" y="0" width="41" height="41" rx="20.5"></rect>
        <circle id="path-3" cx="39" cy="23" r="26"></circle>
        <filter x="-13.5%" y="-9.6%" width="126.9%" height="126.9%" filterUnits="objectBoundingBox" id="filter-4">
            <feOffset dx="0" dy="2" in="SourceAlpha" result="shadowOffsetOuter1"></feOffset>
            <feGaussianBlur stdDeviation="2" in="shadowOffsetOuter1" result="shadowBlurOuter1"></feGaussianBlur>
            <feColorMatrix values="0 0 0 0 0   0 0 0 0 0   0 0 0 0 0  0 0 0 0.5 0" type="matrix" in="shadowBlurOuter1"></feColorMatrix>
        </filter>
        <circle id="path-5" cx="45" cy="28" r="26"></circle>
        <filter x="-13.5%" y="-9.6%" width="126.9%" height="126.9%" filterUnits="objectBoundingBox" id="filter-6">
            <feOffset dx="0" dy="2" in="SourceAlpha" result="shadowOffsetOuter1"></feOffset>
            <feGaussianBlur stdDeviation="2" in="shadowOffsetOuter1" result="shadowBlurOuter1"></feGaussianBlur>
            <feColorMatrix values="0 0 0 0 0   0 0 0 0 0   0 0 0 0 0  0 0 0 0.5 0" type="matrix" in="shadowBlurOuter1"></feColorMatrix>
        </filter>
        <circle id="path-7" cx="47" cy="33" r="22"></circle>
        <filter x="-15.9%" y="-11.4%" width="131.8%" height="131.8%" filterUnits="objectBoundingBox" id="filter-8">
            <feOffset dx="0" dy="2" in="SourceAlpha" result="shadowOffsetOuter1"></feOffset>
            <feGaussianBlur stdDeviation="2" in="shadowOffsetOuter1" result="shadowBlurOuter1"></feGaussianBlur>
            <feColorMatrix values="0 0 0 0 0   0 0 0 0 0   0 0 0 0 0  0 0 0 0.5 0" type="matrix" in="shadowBlurOuter1"></feColorMatrix>
        </filter>
        <circle id="path-9" cx="47" cy="38" r="17"></circle>
        <filter x="-20.6%" y="-14.7%" width="141.2%" height="141.2%" filterUnits="objectBoundingBox" id="filter-10">
            <feOffset dx="0" dy="2" in="SourceAlpha" result="shadowOffsetOuter1"></feOffset>
            <feGaussianBlur stdDeviation="2" in="shadowOffsetOuter1" result="shadowBlurOuter1"></feGaussianBlur>
            <feColorMatrix values="0 0 0 0 0   0 0 0 0 0   0 0 0 0 0  0 0 0 0.5 0" type="matrix" in="shadowBlurOuter1"></feColorMatrix>
        </filter>
    </defs>
    <g id="Page-1" stroke="none" stroke-width="1" fill="none" fill-rule="evenodd">
        <g id="Artboard" transform="translate(-959.000000, -702.000000)">
            <g id="Group-2" transform="translate(959.000000, 702.000000)">
                <g id="Group">
                    <mask id="mask-2" fill="white">
                        <use xlink:href="#path-1"></use>
                    </mask>
                    <use id="Rectangle-10" fill="#0D2944" xlink:href="#path-1"></use>
                    <circle id="Oval-5-Copy-4" fill="#066AB1" mask="url(#mask-2)" cx="33" cy="21" r="26"></circle>
                    <g id="Oval-5-Copy-3" mask="url(#mask-2)">
                        <use fill="black" fill-opacity="1" filter="url(#filter-4)" xlink:href="#path-3"></use>
                        <use fill="#0094FC" fill-rule="evenodd" xlink:href="#path-3"></use>
                    </g>
                    <g id="Oval-5-Copy-2" mask="url(#mask-2)">
                        <use fill="black" fill-opacity="1" filter="url(#filter-6)" xlink:href="#path-5"></use>
                        <use fill="#42BAFF" fill-rule="evenodd" xlink:href="#path-5"></use>
                    </g>
                    <g id="Oval-5-Copy" mask="url(#mask-2)">
                        <use fill="black" fill-opacity="1" filter="url(#filter-8)" xlink:href="#path-7"></use>
                        <use fill="#A1DDFF" fill-rule="evenodd" xlink:href="#path-7"></use>
                    </g>
                    <g id="Oval-5" mask="url(#mask-2)">
                        <use fill="black" fill-opacity="1" filter="url(#filter-10)" xlink:href="#path-9"></use>
                        <use fill="#DFF4FF" fill-rule="evenodd" xlink:href="#path-9"></use>
                    </g>
                </g>
                <path d="M64.7867804,34 C62.1527942,34 60.1290049,33.5405968 58.7153518,32.6217765 C57.3016987,31.7029562 56.3290716,30.3309547 55.7974414,28.5057307 C55.2658111,26.6805066 55,24.240703 55,21.1862464 C55,17.6102973 55.3080993,14.8787105 55.924307,12.991404 C56.5405148,11.1040975 57.5010596,9.80038564 58.8059701,9.08022923 C60.1108807,8.36007281 61.9232293,8 64.2430704,8 C66.6112414,8 69.1968588,8.37248911 72,9.11747851 L71.8187633,14.3323782 C69.5472523,14.0095495 67.7107391,13.8481375 66.3091684,13.8481375 C65.0284229,13.8481375 64.0497546,14.0530065 63.3731343,14.4627507 C62.696514,14.8724949 62.2313446,15.5181427 61.9776119,16.3997135 C61.7238793,17.2812843 61.5970149,18.5291228 61.5970149,20.1432665 C61.5970149,20.9627548 61.6090972,21.5959863 61.6332623,22.0429799 C61.7057573,23.8806205 61.8507452,25.209165 62.0682303,26.0286533 C62.2857154,26.8481416 62.6723497,27.4068753 63.228145,27.7048711 C63.7839402,28.0028668 64.6780322,28.1518625 65.9104478,28.1518625 C67.5778335,28.1518625 69.5472523,28.0152831 71.8187633,27.7421203 L71.9275053,33.1060172 C69.3176842,33.7020087 66.9374663,34 64.7867804,34 Z M89.7044674,29.8005952 L82.2955326,29.8005952 L81.8041237,33 L75,33 L79.8762887,8 L92.1237113,8 L97,33 L90.1958763,33 L89.7044674,29.8005952 Z M87.3088235,14 L85.6911765,14 L84,25 L89,25 L87.3088235,14 Z M116,27.1592262 L116,33 L101,33 L101,8 L107.828645,8 L107.828645,27.1592262 L116,27.1592262 Z M120.67354,23.1785714 L113,8 L120.446735,8 L124,16.7797619 L127.553265,8 L135,8 L127.439863,23.1785714 L127.439863,33 L120.67354,33 L120.67354,23.1785714 Z M139,8 L148.349206,8 C151.490756,8 153.884582,8.76884152 155.530754,10.3065476 C157.176926,11.8442537 158,14.1135763 158,17.1145833 C158,20.1155904 157.170643,22.4283153 155.511905,24.0528274 C153.853166,25.6773395 151.465624,26.4895833 148.349206,26.4895833 L145.710317,26.4895833 L145.710317,33 L139,33 L139,8 Z M148.37931,21 C150.126446,21 151,19.7914651 151,17.374359 C151,16.1538401 150.787358,15.2863274 150.362069,14.7717949 C149.936779,14.2572624 149.275867,14 148.37931,14 L146,14 L146,21 L148.37931,21 Z M168.925926,34 C166.802459,34 164.38273,33.6404423 161.666667,32.9213162 L160.333333,32.6237482 L161,27.565093 C164.259276,28.0114472 166.777769,28.2346209 168.555556,28.2346209 C170.481491,28.2346209 171.444444,27.5650997 171.444444,26.2260372 C171.444444,25.7548856 171.228397,25.3829294 170.796296,25.1101574 C170.364195,24.8373854 169.728399,24.5398204 168.888889,24.2174535 C168.345676,24.0190739 167.950619,23.8578928 167.703704,23.7339056 C164.913566,22.7916023 162.932105,21.7129293 161.759259,20.4978541 C160.586414,19.2827789 160,17.7577583 160,15.9227468 C160,13.3190142 160.790116,11.3476462 162.37037,10.0085837 C163.950625,8.6695212 166.098752,8 168.814815,8 C169.925931,8 170.981476,8.07439124 171.981481,8.22317597 C172.981486,8.37196069 174.814801,8.69432275 177.481481,9.19027182 L176.962963,14.323319 C173.75307,13.9513572 171.283959,13.7653791 169.555556,13.7653791 C167.530854,13.7653791 166.518519,14.3233134 166.518519,15.4391989 C166.518519,15.8111607 166.76543,16.1273234 167.259259,16.3876967 C167.753089,16.64807 168.530859,16.9766313 169.592593,17.3733906 C170.679018,17.7701498 171.382714,18.0429177 171.703704,18.1917024 C173.333341,18.8612337 174.592588,19.5121571 175.481481,20.1444921 C176.370375,20.7768272 177.012344,21.5393375 177.407407,22.4320458 C177.802471,23.3247541 178,24.4530213 178,25.8168813 C178,27.552703 177.598769,29.0343286 176.796296,30.2618026 C175.993823,31.4892765 174.907414,32.4191671 173.537037,33.0515021 C172.16666,33.6838372 170.629638,34 168.925926,34 Z M192.5,34 C188.781231,34 186.101571,32.9694468 184.460938,30.9083095 C182.820304,28.8471721 182,25.5816842 182,21.1117479 C182,16.5921455 182.814228,13.2769924 184.442708,11.1661891 C186.071189,9.05538582 188.756926,8 192.5,8 C196.243074,8 198.928811,9.05538582 200.557292,11.1661891 C202.185772,13.2769924 203,16.5797292 203,21.0744986 C203,25.3706041 202.197925,28.5988431 200.59375,30.7593123 C198.989575,32.9197816 196.291686,34 192.5,34 Z M192,28 C193,28 193.788459,27.7500025 194.365385,27.25 C194.942311,26.7499975 195.358973,25.967954 195.615385,24.9038462 C195.871796,23.8397383 196,22.397445 196,20.5769231 C196,17.8589608 195.705131,15.9166725 195.115385,14.75 C194.525638,13.5833275 193.487187,13 192,13 C190.538454,13 189.506413,13.5897377 188.903846,14.7692308 C188.301279,15.9487238 188,17.8974223 188,20.6153846 C188,23.0256531 188.256408,24.8589681 188.769231,26.1153846 C189.282054,27.3718012 190.358966,28 192,28 Z" id="CALYPSO" fill="#FFFFFF" fill-rule="nonzero"></path>
            </g>
        </g>
    </g>
</svg>