<?xml version='1.0' encoding='iso-8859-1'?>
<svg version="1.1" xmlns="http://www.w3.org/2000/svg" viewBox="0 0 511 511" xmlns:xlink="http://www.w3.org/1999/xlink" enable-background="new 0 0 511 511">
  <g>
    <path d="m504.102,70.943c-4.455-4.477-10.379-6.943-16.682-6.943h-88.435v-18.234c9.29-3.138 16-11.93 16-22.266 0-12.958-10.542-23.5-23.5-23.5h-272c-12.958,0-23.5,10.542-23.5,23.5 0,10.336 6.71,19.128 16,22.266v18.234h-88.405c-6.303,0-12.227,2.466-16.682,6.943-4.471,4.493-6.915,10.457-6.883,16.793 0.228,44.947 12.27,88.467 34.824,125.855 22.548,37.377 53.563,65.318 89.692,80.803 0.745,0.319 1.513,0.506 2.279,0.575 20.131,40.648 58.96,70.45 105.176,78.097v74.934h-40.5c-12.958,0-23.5,10.542-23.5,23.5v32c0,4.143 3.358,7.5 7.5,7.5h160c4.142,0 7.5-3.357 7.5-7.5v-32c0-12.958-10.542-23.5-23.5-23.5h-40.5v-74.935c46.215-7.646 85.043-37.448 105.175-78.095 0.776-0.067 1.554-0.253 2.309-0.576 36.129-15.484 67.145-43.425 89.693-80.803 22.554-37.388 34.595-80.908 34.823-125.855 0.031-6.336-2.413-12.3-6.884-16.793zm-384.617-55.943h272c4.687,0 8.5,3.813 8.5,8.5s-3.813,8.5-8.5,8.5h-272c-4.687,0-8.5-3.813-8.5-8.5s3.813-8.5 8.5-8.5zm-71.802,190.843c-21.158-35.073-32.454-75.94-32.668-118.183-0.012-2.315 0.882-4.495 2.517-6.138 1.617-1.626 3.766-2.522 6.048-2.522h88.406v152.5c0,15.16 2.371,29.776 6.748,43.504-28.246-14.946-52.636-38.633-71.051-69.161zm280.302,265.657v24.5h-145v-24.5c0-4.687 3.813-8.5 8.5-8.5h128c4.687,0 8.5,3.813 8.5,8.5zm-64-23.5h-17v-73.259c2.813,0.165 5.646,0.259 8.5,0.259s5.687-0.094 8.5-0.259v73.259zm-8.5-88c-70.855,0-128.5-57.645-128.5-128.5v-184.5h257v184.5c0,70.855-57.645,128.5-128.5,128.5zm207.833-154.157c-18.424,30.541-42.826,54.234-71.087,69.18 4.381-13.734 6.754-28.355 6.754-43.522v-152.501h88.435c2.282,0 4.43,0.896 6.048,2.522 1.635,1.643 2.528,3.822 2.517,6.137-0.214,42.244-11.51,83.111-32.667,118.184z"/>
    <path d="m332.091,151.657h-44.81l-13.848-42.616c-2.573-7.922-9.618-13.041-17.947-13.041-8.329,0-15.375,5.119-17.949,13.041l-13.847,42.616h-44.81c-8.33,0-15.375,5.119-17.949,13.041-2.574,7.922 0.118,16.205 6.856,21.1l36.251,26.339-13.847,42.617c-2.574,7.922 0.117,16.204 6.856,21.1 3.37,2.448 7.231,3.672 11.093,3.672s7.724-1.224 11.093-3.672l36.252-26.338 36.252,26.338c6.739,4.896 15.447,4.896 22.186,0 6.739-4.896 9.43-13.178 6.856-21.101l-13.847-42.616 36.252-26.339c6.738-4.896 9.429-13.178 6.855-21.1-2.573-7.922-9.619-13.041-17.948-13.041zm2.277,22.006l-40.66,29.542c-2.629,1.91-3.729,5.295-2.725,8.385l15.531,47.799c0.785,2.416-0.723,3.833-1.407,4.33-0.684,0.497-2.498,1.493-4.552,0l-40.661-29.542c-2.628-1.909-6.188-1.91-8.816,0l-40.661,29.542c-2.053,1.493-3.868,0.498-4.552,0-0.685-0.498-2.192-1.915-1.407-4.33l15.531-47.799c1.004-3.09-0.096-6.475-2.725-8.385l-40.66-29.542c-2.054-1.493-1.668-3.525-1.407-4.33s1.144-2.676 3.683-2.676h50.259c3.249,0 6.129-2.092 7.133-5.183l15.531-47.798c0.785-2.415 2.837-2.676 3.683-2.676 0.846,0 2.898,0.261 3.683,2.675l15.531,47.799c1.004,3.09 3.884,5.182 7.133,5.182h50.259c2.539,0 3.421,1.871 3.683,2.676 0.261,0.806 0.647,2.838-1.407,4.331z"/>
  </g>
</svg>
