<?xml version='1.0' encoding='iso-8859-1'?>
<!DOCTYPE svg PUBLIC '-//W3C//DTD SVG 1.1//EN' 'http://www.w3.org/Graphics/SVG/1.1/DTD/svg11.dtd'>
<svg version="1.1" xmlns="http://www.w3.org/2000/svg" viewBox="0 0 512 512" xmlns:xlink="http://www.w3.org/1999/xlink" enable-background="new 0 0 512 512">
  <g>
    <path d="m224,240h64c17.672,0 32-14.328 32-32v-96c0-17.672-14.328-32-32-32h-64c-17.672,0-32,14.328-32,32v96c0,17.672 14.328,32 32,32z"/>
    <path d="m480,336c0-89.131-52.454-166.039-128-202.078v74.078c0,35.289-28.71,64-64,64h-64c-35.29,0-64-28.711-64-64v-74.078c-75.546,36.039-128,112.947-128,202.078-17.672,0-32,14.328-32,32v32c0,17.672 14.328,32 32,32h448c17.672,0 32-14.328 32-32v-32c0-17.672-14.328-32-32-32z"/>
  </g>
</svg>
